<?xml version="1.0" encoding="UTF-8" standalone="no"?><!-- Generator: Gravit.io --><svg xmlns="http://www.w3.org/2000/svg" xmlns:xlink="http://www.w3.org/1999/xlink" style="isolation:isolate" viewBox="0 0 583.5 208.4" width="583.5pt" height="208.4pt"><defs><clipPath id="_clipPath_5jAqKIw4V6ZB7IfvypXWd5bm6XkcXLC5"><rect width="583.5" height="208.4"/></clipPath></defs><g clip-path="url(#_clipPath_5jAqKIw4V6ZB7IfvypXWd5bm6XkcXLC5)"><g><g><path d=" M 222.1 44.6 L 217.7 49.4 L 217.7 58 L 210.1 58 L 210.1 24 L 217.7 24 L 217.7 39.8 L 232.3 23.9 L 240.8 23.9 L 227.1 39.1 L 241.6 57.9 L 232.7 57.9 L 222.1 44.6 Z " fill="rgb(40,53,129)"/><path d=" M 242.8 24 C 242.8 21.6 244.6 19.8 247.4 19.8 C 250.1 19.8 252 21.5 252 23.9 C 252 26.4 250.2 28.3 247.4 28.3 C 244.7 28.2 242.8 26.3 242.8 24 Z  M 243.7 31.8 L 251.1 31.8 L 251.1 57.9 L 243.7 57.9 L 243.7 31.8 Z " fill="rgb(40,53,129)"/><path d=" M 283.6 43 L 283.6 58 L 276.2 58 L 276.2 44.2 C 276.2 40 274.3 38 271.1 38 C 267.6 38 265 40.2 265 45 L 265 57.9 L 257.6 57.9 L 257.6 31.8 L 264.6 31.8 L 264.6 34.9 C 266.6 32.7 269.5 31.5 273 31.5 C 279.1 31.4 283.6 35 283.6 43 Z " fill="rgb(40,53,129)"/><path d=" M 316.4 31.8 L 316.4 53.6 C 316.4 63.3 311.3 67.8 302.2 67.8 C 297.4 67.8 292.7 66.6 289.8 64.2 L 292.7 58.8 C 294.9 60.6 298.4 61.8 301.7 61.8 C 306.9 61.8 309.1 59.4 309.1 54.7 L 309.1 53.6 C 307.2 55.8 304.4 56.9 301.1 56.9 C 294.1 56.9 288.4 51.9 288.4 44.3 C 288.4 36.7 294.1 31.7 301.1 31.7 C 304.6 31.7 307.6 32.9 309.5 35.4 L 309.5 31.8 L 316.4 31.8 Z  M 309.2 44.1 C 309.2 40.3 306.4 37.7 302.6 37.7 C 298.8 37.7 295.9 40.3 295.9 44.1 C 295.9 47.9 298.7 50.5 302.6 50.5 C 306.5 50.5 309.2 47.9 309.2 44.1 Z " fill="rgb(40,53,129)"/><path d=" M 320.6 55.5 L 323.1 50.1 C 325.4 51.6 328.8 52.6 331.9 52.6 C 335.3 52.6 336.6 51.7 336.6 50.2 C 336.6 45.9 321.3 50.3 321.3 39.9 C 321.3 34.9 325.6 31.4 333 31.4 C 336.5 31.4 340.4 32.2 342.8 33.7 L 340.3 39.1 C 337.8 37.6 335.3 37.2 333 37.2 C 329.7 37.2 328.3 38.3 328.3 39.6 C 328.3 44.1 343.6 39.7 343.6 50 C 343.6 54.9 339.2 58.3 331.6 58.3 C 327.3 58.4 322.9 57.1 320.6 55.5 Z " fill="rgb(40,53,129)"/><path d=" M 231.8 97.1 L 216.5 97.1 L 213.6 104.4 L 205.8 104.4 L 220.5 70.4 L 228 70.4 L 242.7 104.4 L 234.7 104.4 L 231.8 97.1 Z  M 229.4 91.2 L 224.2 78.2 L 219 91.2 L 229.4 91.2 Z " fill="rgb(40,53,129)"/><path d=" M 243.3 91.4 C 243.3 83.5 249.2 77.9 257.4 77.9 C 262.7 77.9 266.9 80.3 268.8 84.6 L 263.1 87.8 C 261.7 85.3 259.7 84.2 257.4 84.2 C 253.7 84.2 250.8 86.9 250.8 91.4 C 250.8 96 253.7 98.6 257.4 98.6 C 259.7 98.6 261.7 97.5 263.1 95 L 268.8 98.2 C 267 102.4 262.8 104.8 257.4 104.8 C 249.2 104.8 243.3 99.2 243.3 91.4 Z " fill="rgb(40,53,129)"/><path d=" M 295.2 89.5 L 295.2 104.4 L 288.3 104.4 L 288.3 101.1 C 286.9 103.5 284.3 104.7 280.6 104.7 C 274.7 104.7 271.1 101.3 271.1 96.8 C 271.1 92.2 274.3 89 282 89 L 287.8 89 C 287.8 85.7 285.9 83.9 282 83.9 C 279.3 83.9 276.5 84.8 274.7 86.3 L 272.1 81 C 274.9 79 279 77.8 283 77.8 C 290.7 77.9 295.2 81.6 295.2 89.5 Z  M 287.9 96.2 L 287.9 93.5 L 282.9 93.5 C 279.5 93.5 278.4 94.8 278.4 96.6 C 278.4 98.5 280 99.8 282.5 99.8 C 284.9 99.7 287 98.6 287.9 96.2 Z " fill="rgb(40,53,129)"/><path d=" M 327.7 68.4 L 327.7 104.4 L 320.7 104.4 L 320.7 101.4 C 318.9 103.7 316.2 104.8 312.8 104.8 C 305.6 104.8 300.1 99.6 300.1 91.3 C 300.1 83.1 305.6 77.8 312.8 77.8 C 315.9 77.8 318.5 78.8 320.4 81 L 320.4 68.3 L 327.7 68.3 L 327.7 68.4 Z  M 320.5 91.4 C 320.5 86.9 317.7 84.2 314 84.2 C 310.3 84.2 307.5 86.9 307.5 91.4 C 307.5 95.9 310.3 98.6 314 98.6 C 317.7 98.6 320.5 95.9 320.5 91.4 Z " fill="rgb(40,53,129)"/><path d=" M 359 93.5 L 339.8 93.5 C 340.5 96.8 343.2 98.7 347.1 98.7 C 349.8 98.7 351.7 97.9 353.5 96.2 L 357.4 100.6 C 355 103.4 351.5 104.8 346.9 104.8 C 338.1 104.8 332.4 99.1 332.4 91.3 C 332.4 83.5 338.2 77.8 345.9 77.8 C 353.3 77.8 359.1 82.9 359.1 91.4 C 359.1 92 359 92.9 359 93.5 Z  M 339.7 89.1 L 352.2 89.1 C 351.7 85.8 349.3 83.7 346 83.7 C 342.6 83.6 340.2 85.7 339.7 89.1 Z " fill="rgb(40,53,129)"/><path d=" M 406.6 89.5 L 406.6 104.5 L 399.2 104.5 L 399.2 90.7 C 399.2 86.5 397.4 84.5 394.4 84.5 C 391.1 84.5 388.8 86.7 388.8 91.3 L 388.8 104.4 L 381.4 104.4 L 381.4 90.6 C 381.4 86.4 379.7 84.4 376.6 84.4 C 373.3 84.4 371 86.6 371 91.2 L 371 104.3 L 363.8 104.3 L 363.8 78.2 L 370.8 78.2 L 370.8 81.2 C 372.7 79 375.5 77.8 378.8 77.8 C 382.3 77.8 385.3 79.2 387.1 82.1 C 389.1 79.4 392.4 77.8 396.2 77.8 C 402.3 77.9 406.6 81.5 406.6 89.5 Z " fill="rgb(40,53,129)"/><path d=" M 437.6 78.3 L 426.1 106 C 423.6 112.3 420.2 114.2 415.6 114.2 C 413 114.2 410.2 113.3 408.5 111.8 L 411.2 106.4 C 412.3 107.4 413.9 108.1 415.3 108.1 C 417.3 108.1 418.5 107.2 419.4 104.8 L 419.5 104.6 L 408.5 78.3 L 416.1 78.3 L 423.2 96 L 430.4 78.3 L 437.6 78.3 Z " fill="rgb(40,53,129)"/><path d=" M 460.9 76.8 L 450.3 76.8 L 450.3 70.4 L 479 70.4 L 479 76.8 L 468.4 76.8 L 468.4 104.4 L 460.8 104.4 L 460.8 76.8 L 460.9 76.8 Z " fill="rgb(40,53,129)"/><path d=" M 497.6 77.9 L 497.6 84.9 C 497 84.9 496.5 84.8 496 84.8 C 491.9 84.8 489.3 87.1 489.3 92.1 L 489.3 104.4 L 481.8 104.4 L 481.8 78.3 L 488.8 78.3 L 488.8 81.7 C 490.6 79.2 493.7 77.9 497.6 77.9 Z " fill="rgb(40,53,129)"/><path d=" M 527.4 78.3 L 527.4 104.4 L 520.4 104.4 L 520.4 101.3 C 518.5 103.6 515.6 104.8 512.5 104.8 C 506.1 104.8 501.7 101.1 501.7 93 L 501.7 78.2 L 509.1 78.2 L 509.1 91.8 C 509.1 96.2 511 98.1 514.2 98.1 C 517.6 98.1 520 95.9 520 91.1 L 520 78.2 L 527.4 78.2 L 527.4 78.3 Z " fill="rgb(40,53,129)"/><path d=" M 531.6 102 L 534.1 96.6 C 536.4 98.1 539.8 99.1 542.9 99.1 C 546.3 99.1 547.6 98.2 547.6 96.7 C 547.6 92.4 532.3 96.8 532.3 86.4 C 532.3 81.4 536.6 77.9 544 77.9 C 547.5 77.9 551.3 78.7 553.8 80.2 L 551.3 85.6 C 548.8 84.1 546.3 83.7 544 83.7 C 540.7 83.7 539.3 84.8 539.3 86.1 C 539.3 90.6 554.6 86.2 554.6 96.5 C 554.6 101.4 550.2 104.8 542.6 104.8 C 538.3 104.8 533.9 103.6 531.6 102 Z " fill="rgb(40,53,129)"/><path d=" M 575.2 103.2 C 573.7 104.3 571.5 104.9 569.2 104.9 C 563.2 104.9 559.7 101.7 559.7 95.5 L 559.7 84.8 L 555.8 84.8 L 555.8 79 L 559.7 79 L 559.7 72.6 L 567.1 72.6 L 567.1 79 L 573.4 79 L 573.4 84.8 L 567.1 84.8 L 567.1 95.4 C 567.1 97.6 568.3 98.8 570.3 98.8 C 571.4 98.8 572.5 98.5 573.3 97.8 L 575.2 103.2 Z " fill="rgb(40,53,129)"/></g><g><path d=" M 218.6 130.9 C 218.6 133.1 216.9 134.3 213.7 134.3 L 207.4 134.3 L 207.4 121.7 L 213.4 121.7 C 216.5 121.7 218 123 218 125 C 218 126.3 217.4 127.2 216.4 127.8 C 217.7 128.2 218.6 129.3 218.6 130.9 Z  M 210.2 123.9 L 210.2 126.9 L 213 126.9 C 214.4 126.9 215.1 126.4 215.1 125.4 C 215.1 124.4 214.3 123.9 213 123.9 L 210.2 123.9 Z  M 215.8 130.6 C 215.8 129.5 215 129 213.5 129 L 210.2 129 L 210.2 132.1 L 213.5 132.1 C 215 132.1 215.8 131.7 215.8 130.6 Z " fill="rgb(40,53,129)"/><path d=" M 229.6 130.3 L 222.5 130.3 C 222.8 131.5 223.8 132.2 225.2 132.2 C 226.2 132.2 226.9 131.9 227.6 131.3 L 229 132.9 C 228.1 133.9 226.8 134.5 225.1 134.5 C 221.9 134.5 219.7 132.4 219.7 129.5 C 219.7 126.6 221.8 124.5 224.7 124.5 C 227.5 124.5 229.6 126.4 229.6 129.5 C 229.7 129.8 229.6 130.1 229.6 130.3 Z  M 222.5 128.7 L 227.1 128.7 C 226.9 127.5 226 126.7 224.8 126.7 C 223.6 126.6 222.7 127.4 222.5 128.7 Z " fill="rgb(40,53,129)"/><path d=" M 231.4 121 L 234.1 121 L 234.1 134.3 L 231.4 134.3 L 231.4 121 Z " fill="rgb(40,53,129)"/><path d=" M 236.2 121.7 C 236.2 120.8 236.9 120.1 237.9 120.1 C 238.9 120.1 239.6 120.7 239.6 121.6 C 239.6 122.5 238.9 123.2 237.9 123.2 C 236.9 123.3 236.2 122.6 236.2 121.7 Z  M 236.6 124.7 L 239.3 124.7 L 239.3 134.4 L 236.6 134.4 L 236.6 124.7 Z " fill="rgb(40,53,129)"/><path d=" M 250.9 130.3 L 243.8 130.3 C 244.1 131.5 245.1 132.2 246.5 132.2 C 247.5 132.2 248.2 131.9 248.9 131.3 L 250.3 132.9 C 249.4 133.9 248.1 134.5 246.4 134.5 C 243.2 134.5 241 132.4 241 129.5 C 241 126.6 243.1 124.5 246 124.5 C 248.8 124.5 250.9 126.4 250.9 129.5 C 250.9 129.8 250.9 130.1 250.9 130.3 Z  M 243.7 128.7 L 248.3 128.7 C 248.1 127.5 247.2 126.7 246 126.7 C 244.8 126.6 243.9 127.4 243.7 128.7 Z " fill="rgb(40,53,129)"/><path d=" M 261.8 124.7 L 257.8 134.4 L 255 134.4 L 251.1 124.7 L 253.9 124.7 L 256.5 131.3 L 259.2 124.7 L 261.8 124.7 Z " fill="rgb(40,53,129)"/><path d=" M 271.7 130.3 L 264.6 130.3 C 264.9 131.5 265.9 132.2 267.3 132.2 C 268.3 132.2 269 131.9 269.7 131.3 L 271.1 132.9 C 270.2 133.9 268.9 134.5 267.2 134.5 C 264 134.5 261.8 132.4 261.8 129.5 C 261.8 126.6 263.9 124.5 266.8 124.5 C 269.6 124.5 271.7 126.4 271.7 129.5 C 271.8 129.8 271.7 130.1 271.7 130.3 Z  M 264.6 128.7 L 269.2 128.7 C 269 127.5 268.1 126.7 266.9 126.7 C 265.7 126.6 264.8 127.4 264.6 128.7 Z " fill="rgb(40,53,129)"/><path d=" M 278 129.3 C 278 128 279 127 280.2 127 C 281.4 127 282.4 128 282.4 129.3 C 282.4 130.6 281.4 131.6 280.2 131.6 C 279 131.6 278 130.6 278 129.3 Z " fill="rgb(169,174,178)"/><path d=" M 297.6 131.6 L 291.9 131.6 L 290.8 134.3 L 287.9 134.3 L 293.3 121.7 L 296.1 121.7 L 301.6 134.3 L 298.6 134.3 L 297.6 131.6 Z  M 296.7 129.4 L 294.8 124.6 L 292.9 129.4 L 296.7 129.4 Z " fill="rgb(54,169,225)"/><path d=" M 301.9 129.5 C 301.9 126.6 304.1 124.5 307.1 124.5 C 309.1 124.5 310.6 125.4 311.3 127 L 309.2 128.2 C 308.7 127.3 307.9 126.9 307.1 126.9 C 305.7 126.9 304.6 127.9 304.6 129.6 C 304.6 131.3 305.7 132.3 307.1 132.3 C 308 132.3 308.7 131.9 309.2 131 L 311.3 132.2 C 310.6 133.7 309.1 134.6 307.1 134.6 C 304 134.5 301.9 132.4 301.9 129.5 Z " fill="rgb(54,169,225)"/><path d=" M 322.3 128.8 L 322.3 134.3 L 319.6 134.3 L 319.6 129.2 C 319.6 127.6 318.9 126.9 317.7 126.9 C 316.4 126.9 315.4 127.7 315.4 129.5 L 315.4 134.3 L 312.7 134.3 L 312.7 121 L 315.4 121 L 315.4 125.7 C 316.1 124.9 317.2 124.5 318.4 124.5 C 320.6 124.5 322.3 125.9 322.3 128.8 Z " fill="rgb(54,169,225)"/><path d=" M 324.3 121.7 C 324.3 120.8 325 120.1 326 120.1 C 327 120.1 327.7 120.7 327.7 121.6 C 327.7 122.5 327 123.2 326 123.2 C 325 123.3 324.3 122.6 324.3 121.7 Z  M 324.7 124.7 L 327.4 124.7 L 327.4 134.4 L 324.7 134.4 L 324.7 124.7 Z " fill="rgb(54,169,225)"/><path d=" M 339 130.3 L 331.9 130.3 C 332.2 131.5 333.2 132.2 334.6 132.2 C 335.6 132.2 336.3 131.9 337 131.3 L 338.4 132.9 C 337.5 133.9 336.2 134.5 334.5 134.5 C 331.3 134.5 329.1 132.4 329.1 129.5 C 329.1 126.6 331.2 124.5 334.1 124.5 C 336.9 124.5 339 126.4 339 129.5 C 339 129.8 339 130.1 339 130.3 Z  M 331.8 128.7 L 336.4 128.7 C 336.2 127.5 335.3 126.7 334.1 126.7 C 332.9 126.6 332 127.4 331.8 128.7 Z " fill="rgb(54,169,225)"/><path d=" M 349.9 124.7 L 345.9 134.4 L 343.1 134.4 L 339.2 124.7 L 342 124.7 L 344.6 131.3 L 347.3 124.7 L 349.9 124.7 Z " fill="rgb(54,169,225)"/><path d=" M 359.8 130.3 L 352.7 130.3 C 353 131.5 354 132.2 355.4 132.2 C 356.4 132.2 357.1 131.9 357.8 131.3 L 359.2 132.9 C 358.3 133.9 357 134.5 355.3 134.5 C 352.1 134.5 349.9 132.4 349.9 129.5 C 349.9 126.6 352 124.5 354.9 124.5 C 357.7 124.5 359.8 126.4 359.8 129.5 C 359.9 129.8 359.8 130.1 359.8 130.3 Z  M 352.7 128.7 L 357.3 128.7 C 357.1 127.5 356.2 126.7 355 126.7 C 353.8 126.6 352.9 127.4 352.7 128.7 Z " fill="rgb(54,169,225)"/><path d=" M 366.1 129.3 C 366.1 128 367.1 127 368.3 127 C 369.5 127 370.5 128 370.5 129.3 C 370.5 130.6 369.5 131.6 368.3 131.6 C 367.1 131.6 366.1 130.6 366.1 129.3 Z " fill="rgb(169,174,178)"/><path d=" M 376.7 133.1 L 377.7 130.9 C 378.7 131.7 380.3 132.2 381.7 132.2 C 383.4 132.2 384.1 131.6 384.1 130.9 C 384.1 128.5 377 130.2 377 125.5 C 377 123.4 378.7 121.6 382.1 121.6 C 383.6 121.6 385.2 122 386.3 122.7 L 385.4 124.9 C 384.3 124.2 383.1 123.9 382 123.9 C 380.3 123.9 379.7 124.5 379.7 125.3 C 379.7 127.6 386.8 126 386.8 130.6 C 386.8 132.7 385.1 134.5 381.6 134.5 C 379.7 134.6 377.8 134 376.7 133.1 Z " fill="rgb(255,220,0)"/><path d=" M 398 124.7 L 398 134.4 L 395.4 134.4 L 395.4 133.2 C 394.7 134 393.6 134.5 392.5 134.5 C 390.1 134.5 388.5 133.1 388.5 130.1 L 388.5 124.6 L 391.2 124.6 L 391.2 129.7 C 391.2 131.3 391.9 132 393.1 132 C 394.4 132 395.3 131.2 395.3 129.4 L 395.3 124.6 L 398 124.6 L 398 124.7 Z " fill="rgb(255,220,0)"/><path d=" M 399.7 129.5 C 399.7 126.6 401.9 124.5 404.9 124.5 C 406.9 124.5 408.4 125.4 409.1 127 L 407 128.2 C 406.5 127.3 405.7 126.9 404.9 126.9 C 403.5 126.9 402.4 127.9 402.4 129.6 C 402.4 131.3 403.5 132.3 404.9 132.3 C 405.8 132.3 406.5 131.9 407 131 L 409.1 132.2 C 408.4 133.7 406.9 134.6 404.9 134.6 C 401.9 134.5 399.7 132.4 399.7 129.5 Z " fill="rgb(255,220,0)"/><path d=" M 409.8 129.5 C 409.8 126.6 412 124.5 415 124.5 C 417 124.5 418.5 125.4 419.2 127 L 417.1 128.2 C 416.6 127.3 415.8 126.9 415 126.9 C 413.6 126.9 412.5 127.9 412.5 129.6 C 412.5 131.3 413.6 132.3 415 132.3 C 415.9 132.3 416.6 131.9 417.1 131 L 419.2 132.2 C 418.5 133.7 417 134.6 415 134.6 C 412 134.5 409.8 132.4 409.8 129.5 Z " fill="rgb(255,220,0)"/><path d=" M 429.8 130.3 L 422.7 130.3 C 423 131.5 424 132.2 425.4 132.2 C 426.4 132.2 427.1 131.9 427.8 131.3 L 429.2 132.9 C 428.3 133.9 427 134.5 425.3 134.5 C 422.1 134.5 419.9 132.4 419.9 129.5 C 419.9 126.6 422 124.5 424.9 124.5 C 427.7 124.5 429.8 126.4 429.8 129.5 C 429.8 129.8 429.8 130.1 429.8 130.3 Z  M 422.6 128.7 L 427.2 128.7 C 427 127.5 426.1 126.7 424.9 126.7 C 423.7 126.6 422.8 127.4 422.6 128.7 Z " fill="rgb(255,220,0)"/><path d=" M 440.7 130.3 L 433.6 130.3 C 433.9 131.5 434.9 132.2 436.3 132.2 C 437.3 132.2 438 131.9 438.7 131.3 L 440.1 132.9 C 439.2 133.9 437.9 134.5 436.2 134.5 C 433 134.5 430.8 132.4 430.8 129.5 C 430.8 126.6 432.9 124.5 435.8 124.5 C 438.6 124.5 440.7 126.4 440.7 129.5 C 440.7 129.8 440.7 130.1 440.7 130.3 Z  M 433.5 128.7 L 438.1 128.7 C 437.9 127.5 437 126.7 435.8 126.7 C 434.6 126.6 433.7 127.4 433.5 128.7 Z " fill="rgb(255,220,0)"/><path d=" M 452 121 L 452 134.3 L 449.4 134.3 L 449.4 133.2 C 448.7 134 447.7 134.5 446.5 134.5 C 443.8 134.5 441.8 132.6 441.8 129.5 C 441.8 126.5 443.8 124.5 446.5 124.5 C 447.7 124.5 448.6 124.9 449.3 125.7 L 449.3 121 L 452 121 Z  M 449.4 129.5 C 449.4 127.8 448.4 126.8 447 126.8 C 445.6 126.8 444.6 127.8 444.6 129.5 C 444.6 131.2 445.6 132.2 447 132.2 C 448.3 132.2 449.4 131.2 449.4 129.5 Z " fill="rgb(255,220,0)"/></g></g><g><path d=" M 95.1 41.6 C 91.4 34.1 91.7 31.5 91.7 31.5 C 92.1 33.8 93.8 36.9 95.2 39.9 C 95.2 39.9 95.2 40 95.2 40 C 95.4 36.4 95.5 31.4 95 24.6 C 95 24.6 96.8 32.4 96.3 40.8 C 97.4 38.5 98.3 36.3 98.6 34.6 C 98.6 34.6 98.9 36.8 96 43.1 C 95.9 44.1 95.7 45.1 95.5 46 C 95.3 47 95.1 47.8 95 48.5 L 95 48.5 C 95 48.5 102 41.9 101.9 33.7 C 101.8 25.5 94.9 19 94.9 19 C 94.9 19 87.9 25.6 88 33.8 C 88 40.1 92.2 45.4 94.1 47.6 C 94.3 46.9 94.8 45.1 95.1 41.6 Z " fill="rgb(54,169,225)"/><path d=" M 42.5 60.3 C 42.9 60.3 43.3 60.3 43.7 60.4 C 44.1 60.4 44.4 60.5 44.7 60.5 C 44.7 60.5 44.7 60.5 44.7 60.5 C 44.7 60.5 41.8 58.1 38.6 58.4 C 35.4 58.7 33.1 61.7 33.1 61.7 C 33.1 61.7 36 64.1 39.2 63.8 C 41.7 63.5 43.6 61.7 44.3 60.9 C 44 60.8 43.3 60.7 41.9 60.8 C 39.1 62.6 38.1 62.5 38.1 62.5 C 39 62.2 40.1 61.5 41.2 60.8 C 41.2 60.8 41.2 60.8 41.2 60.8 C 39.8 60.9 37.8 61.1 35.2 61.5 C 35.2 61.5 38.2 60.5 41.5 60.3 C 40.6 60 39.7 59.7 39 59.6 C 39.1 59.7 40 59.5 42.5 60.3 Z " fill="rgb(40,53,129)"/><path d=" M 19.7 53.1 C 24.8 56.8 31.6 56.5 34.4 56.2 C 34 55.7 32.8 54.2 30.2 51.9 C 21.9 50.5 20 48.8 20 48.8 C 22.1 49.8 25.6 50.3 28.8 50.9 C 28.8 50.9 28.9 50.9 28.9 50.9 C 26.1 48.6 22.1 45.7 16.2 42.1 C 16.2 42.1 23.6 45.2 30.1 50.6 C 28.9 48.4 27.7 46.3 26.5 45.1 C 26.5 45.1 28.5 46.1 31.9 52.2 C 32.6 52.9 33.3 53.6 34 54.3 C 34.7 55 35.2 55.7 35.7 56.2 C 35.7 56.2 35.7 56.2 35.7 56.2 C 35.7 56.2 34.4 46.7 27.8 41.9 C 21.2 37.2 11.8 39 11.8 39 C 11.8 39 13.1 48.4 19.7 53.1 Z " fill="rgb(255,220,0)"/><path d=" M 147.8 60.3 C 147.4 60.3 147 60.3 146.6 60.4 C 146.2 60.4 145.9 60.5 145.6 60.5 C 145.6 60.5 145.6 60.5 145.6 60.5 C 145.6 60.5 148.5 58.1 151.7 58.4 C 154.9 58.7 157.2 61.7 157.2 61.7 C 157.2 61.7 154.3 64.1 151.1 63.8 C 148.6 63.5 146.7 61.7 146 60.9 C 146.3 60.8 147 60.7 148.4 60.8 C 151.2 62.6 152.2 62.5 152.2 62.5 C 151.3 62.2 150.2 61.5 149.1 60.8 C 149.1 60.8 149.1 60.8 149.1 60.8 C 150.5 60.9 152.5 61.1 155.1 61.5 C 155.1 61.5 152.1 60.5 148.8 60.3 C 149.7 60 150.6 59.7 151.3 59.6 C 151.3 59.7 150.4 59.5 147.8 60.3 Z " fill="rgb(40,53,129)"/><path d=" M 170.7 53.1 C 165.6 56.8 158.8 56.5 156 56.2 C 156.4 55.7 157.6 54.2 160.2 51.9 C 168.5 50.5 170.4 48.8 170.4 48.8 C 168.3 49.8 164.8 50.3 161.6 50.9 C 161.6 50.9 161.5 50.9 161.5 50.9 C 164.3 48.6 168.3 45.7 174.2 42.1 C 174.2 42.1 166.8 45.2 160.3 50.6 C 161.5 48.4 162.7 46.3 163.9 45.1 C 163.9 45.1 161.9 46.1 158.5 52.2 C 157.8 52.9 157.1 53.6 156.4 54.3 C 155.7 55 155.2 55.7 154.7 56.2 C 154.7 56.2 154.7 56.2 154.7 56.2 C 154.7 56.2 156 46.7 162.6 41.9 C 169.2 37.2 178.6 39 178.6 39 C 178.6 39 177.3 48.4 170.7 53.1 Z " fill="rgb(255,220,0)"/><path d=" M 18.3 66.9 C 14.5 72.3 12.7 73.1 12.7 73.1 C 14.1 71.9 15.7 69.6 17.2 67.5 C 17.2 67.5 17.2 67.5 17.2 67.4 C 14.6 68.6 11.2 70.5 6.7 73.4 C 6.7 73.4 11.4 69.2 17.4 66.4 C 15.4 66.5 13.5 66.7 12.2 67.1 C 12.2 67.1 13.6 66.1 19 65.6 C 19.7 65.3 20.4 65 21.2 64.8 C 22 64.6 22.6 64.4 23.1 64.2 C 23.1 64.2 23.1 64.2 23.1 64.2 C 23.1 64.2 15.9 61.9 10.3 65.1 C 4.7 68.2 2.8 75.5 2.8 75.5 C 2.8 75.5 10 77.8 15.6 74.6 C 19.9 72.2 22 67.3 22.8 65.2 C 22.3 65.4 20.9 65.8 18.3 66.9 Z " fill="rgb(40,53,129)"/><path d=" M 43.6 92.7 C 44 92.7 44.4 92.7 44.8 92.8 C 45.2 92.8 45.5 92.9 45.8 92.9 C 45.8 92.9 45.8 92.9 45.8 92.9 C 45.8 92.9 42.9 90.5 39.7 90.8 C 36.5 91.1 34.2 94.1 34.2 94.1 C 34.2 94.1 37.1 96.5 40.3 96.2 C 42.8 95.9 44.7 94.1 45.4 93.3 C 45.1 93.2 44.4 93.1 43 93.2 C 40.2 95 39.2 94.9 39.2 94.9 C 40.1 94.6 41.2 93.9 42.3 93.2 C 42.3 93.2 42.3 93.2 42.3 93.2 C 40.9 93.3 38.9 93.5 36.3 93.9 C 36.3 93.9 39.3 92.9 42.6 92.7 C 41.7 92.4 40.8 92.1 40.1 92 C 40.1 92 41 91.8 43.6 92.7 Z " fill="rgb(40,53,129)"/><path d=" M 70.1 54.1 C 70.1 53.8 70 53.1 69.6 51.8 C 67.1 49.6 66.8 48.6 66.8 48.6 C 67.3 49.4 68.4 50.3 69.3 51.1 C 69.3 51.1 69.3 51.1 69.3 51.1 C 68.8 49.8 68.1 47.9 66.9 45.5 C 66.9 45.5 68.7 48.1 69.8 51.2 C 69.8 50.2 69.9 49.3 69.7 48.6 C 69.7 48.6 70.1 49.4 70.1 52.1 C 70.2 52.5 70.3 52.9 70.4 53.2 C 70.5 53.6 70.5 53.9 70.6 54.2 L 70.6 54.2 C 70.6 54.2 72.1 50.7 70.9 47.8 C 69.7 44.9 66.1 43.5 66.1 43.5 C 66.1 43.5 64.6 47 65.8 49.9 C 66.8 52.3 69.1 53.6 70.1 54.1 Z " fill="rgb(255,220,0)"/><path d=" M 58.3 24.1 C 58.3 23.8 58.1 23.1 57.7 21.8 C 55.1 19.7 54.8 18.8 54.8 18.8 C 55.3 19.5 56.4 20.4 57.4 21.2 C 57.4 21.2 57.4 21.2 57.4 21.2 C 56.9 19.9 56.1 18.1 54.8 15.7 C 54.8 15.7 56.7 18.2 57.9 21.3 C 57.9 20.3 57.9 19.4 57.7 18.7 C 57.7 18.7 58.2 19.4 58.2 22.2 C 58.3 22.6 58.4 22.9 58.5 23.3 C 58.6 23.7 58.7 24 58.7 24.3 L 58.7 24.3 C 58.7 24.3 60.1 20.8 58.7 17.9 C 57.4 15 53.8 13.8 53.8 13.8 C 53.8 13.8 52.4 17.3 53.8 20.2 C 54.9 22.4 57.3 23.6 58.3 24.1 Z " fill="rgb(54,169,225)"/><path d=" M 44.8 81 C 45.1 81.3 45.3 81.6 45.6 81.9 C 45.9 82.2 46.1 82.5 46.2 82.7 C 46.2 82.7 46.2 82.7 46.2 82.7 C 46.2 82.7 45.9 78.9 43.4 76.9 C 40.9 74.9 37.2 75.3 37.2 75.3 C 37.2 75.3 37.5 79.1 40 81.1 C 41.9 82.7 44.6 82.7 45.7 82.7 C 45.6 82.5 45.1 81.9 44.1 80.9 C 40.9 80.2 40.2 79.4 40.2 79.4 C 41 79.8 42.4 80.1 43.6 80.4 C 43.6 80.4 43.6 80.4 43.6 80.4 C 42.6 79.4 41.1 78.2 38.8 76.6 C 38.8 76.6 41.6 78 44 80.3 C 43.6 79.4 43.2 78.6 42.7 78 C 42.9 78.1 43.6 78.5 44.8 81 Z " fill="rgb(40,53,129)"/><path d=" M 33.7 89.5 C 33.4 89.4 32.6 89 31 88.7 C 27.2 90 26 89.7 26 89.7 C 27.1 89.6 28.7 89.1 30.2 88.6 C 30.2 88.6 30.2 88.6 30.2 88.6 C 28.5 88.3 26.2 87.9 22.9 87.8 C 22.9 87.8 26.7 87.4 30.6 88.2 C 29.6 87.6 28.6 87 27.8 86.7 C 27.8 86.7 28.9 86.7 31.7 88.4 C 32.2 88.5 32.6 88.6 33.1 88.8 C 33.6 89 33.9 89.1 34.2 89.2 C 34.2 89.2 34.2 89.2 34.2 89.2 C 34.2 89.2 31.5 85.5 27.6 85 C 23.8 84.5 20.2 87.4 20.2 87.4 C 20.2 87.4 22.9 91.1 26.8 91.6 C 29.8 91.9 32.6 90.2 33.7 89.5 Z " fill="rgb(255,220,0)"/><path d=" M 78.9 47.3 C 78.8 48.6 78.9 51.9 80.8 54.2 C 83.2 57.2 87.8 57.6 87.8 57.6 C 87.8 57.6 88.4 53.1 86 50.1 C 83.6 47.1 79 46.7 79 46.7 L 79 46.7 C 79.3 46.9 79.6 47.1 79.9 47.5 C 80.3 47.8 80.6 48.1 80.9 48.4 C 83.9 49.9 84.4 50.8 84.4 50.8 C 83.8 50.3 82.7 49.7 81.7 49.2 C 84.4 52.1 86.1 55.6 86.1 55.6 C 84.2 52.9 82.7 51.1 81.6 49.8 C 81.6 49.8 81.6 49.8 81.6 49.8 C 82 51.3 82.3 53 82.8 53.9 C 82.8 53.9 81.9 53.1 81 49.2 C 79.9 48 79.2 47.5 78.9 47.3 Z " fill="rgb(40,53,129)"/><path d=" M 56.8 33.3 C 56.7 33 56.3 32.2 55.3 30.9 C 51.6 29.4 50.9 28.4 50.9 28.4 C 51.8 29.1 53.3 29.7 54.8 30.3 C 54.8 30.3 54.8 30.3 54.8 30.3 C 53.7 28.9 52.2 27.2 49.8 24.9 C 49.8 24.9 52.9 27.1 55.4 30.3 C 55.1 29.2 54.7 28.1 54.3 27.4 C 54.3 27.4 55.1 28.1 56.1 31.2 C 56.4 31.6 56.6 32 56.9 32.4 C 57.1 32.8 57.3 33.2 57.5 33.4 C 57.5 33.4 57.5 33.4 57.5 33.4 C 57.5 33.4 57.9 28.8 55.3 25.9 C 52.7 23 48.2 22.9 48.2 22.9 C 48.2 22.9 47.8 27.5 50.4 30.4 C 52.3 32.6 55.5 33.2 56.8 33.3 Z " fill="rgb(255,220,0)"/><path d=" M 57.4 92.2 C 56.3 94.2 53.9 99.3 55.1 104.4 C 56.6 111 63.5 115 63.5 115 C 63.5 115 67.9 108.4 66.4 101.8 C 64.9 95.2 58 91.2 58 91.2 C 58 91.2 58 91.2 58 91.2 C 58.2 91.7 58.5 92.3 58.9 93.1 C 59.2 93.8 59.5 94.6 59.8 95.4 C 63.3 100 63.5 101.8 63.5 101.8 C 62.9 100.5 61.7 98.9 60.5 97.3 C 62.5 104 62.5 110.6 62.5 110.6 C 61.6 105 60.6 101 59.8 98.1 C 59.8 98.1 59.8 98.2 59.8 98.2 C 59.2 100.8 58.5 103.7 58.6 105.6 C 58.6 105.6 57.8 103.6 59.4 96.9 C 58.4 94.1 57.6 92.7 57.4 92.2 Z " fill="rgb(40,53,129)"/><path d=" M 69.5 38.1 C 69.5 37.5 69.4 36.9 69.4 36 C 69.4 35.2 69.4 34.4 69.4 33.6 C 67.9 28.1 68.5 26.3 68.5 26.3 C 68.5 27.7 69 29.7 69.6 31.7 C 70.3 24.8 72.8 18.6 72.8 18.6 C 71.5 24.1 70.8 28.2 70.5 31.2 C 70.5 31.2 70.5 31.2 70.5 31.1 C 72.1 28.9 73.8 26.5 74.5 24.7 C 74.5 24.7 74.4 26.8 70.4 32.5 C 70.2 35.4 70.3 36.9 70.4 37.5 C 72.2 36 76.4 32.3 77.2 27.1 C 78.3 20.5 73.6 14.1 73.6 14.1 C 73.6 14.1 67 18.5 65.9 25.1 C 64.7 31.7 69.5 38.1 69.5 38.1 C 69.5 38.1 69.5 38.1 69.5 38.1 Z " fill="rgb(40,53,129)"/><path d=" M 46.6 108.5 C 46 109.6 44.7 112.4 45.3 115.2 C 46.1 118.8 49.9 121 49.9 121 C 49.9 121 52.3 117.4 51.5 113.8 C 50.7 110.2 46.9 108 46.9 108 L 46.9 108 C 47 108.3 47.2 108.6 47.4 109 C 47.6 109.4 47.8 109.8 47.9 110.2 C 49.8 112.7 49.9 113.7 49.9 113.7 C 49.6 113 48.9 112.1 48.2 111.2 C 49.3 114.9 49.3 118.5 49.3 118.5 C 48.8 115.4 48.3 113.2 47.8 111.6 C 47.8 111.6 47.8 111.6 47.8 111.6 C 47.5 113.1 47.1 114.6 47.1 115.7 C 47.1 115.7 46.7 114.6 47.6 110.9 C 47.1 109.5 46.7 108.7 46.6 108.5 Z " fill="rgb(255,220,0)"/><path d=" M 82.4 24.1 C 82.4 23.8 82.5 23.4 82.5 23 C 82.6 22.6 82.6 22.1 82.7 21.7 C 82.4 18.6 82.9 17.7 82.9 17.7 C 82.8 18.5 82.9 19.6 83 20.7 C 84 17 86 13.9 86 13.9 C 84.8 16.8 84 18.9 83.6 20.5 C 83.6 20.5 83.6 20.5 83.6 20.5 C 84.7 19.4 85.8 18.3 86.4 17.4 C 86.4 17.4 86.2 18.5 83.4 21.2 C 83 22.8 82.9 23.6 82.9 23.9 C 84 23.3 86.6 21.6 87.6 18.9 C 88.8 15.4 86.8 11.5 86.8 11.5 C 86.8 11.5 82.8 13.3 81.6 16.8 C 80.4 20.2 82.4 24.1 82.4 24.1 L 82.4 24.1 Z " fill="rgb(255,220,0)"/><path d=" M 68.5 93 C 67 92.4 66.2 92.2 65.9 92.1 C 66.3 93.3 67.6 96.1 70.1 97.5 C 73.4 99.3 77.5 97.9 77.5 97.9 C 77.5 97.9 76.4 93.7 73.1 91.9 C 69.8 90.1 65.7 91.5 65.7 91.5 C 65.7 91.5 65.7 91.5 65.7 91.5 C 66 91.6 66.4 91.7 66.8 91.8 C 67.2 91.9 67.7 92.1 68.1 92.2 C 71.2 92.4 72.1 93 72.1 93 C 71.3 92.8 70.3 92.7 69.1 92.6 C 72.6 94.2 75.3 96.6 75.3 96.6 C 72.7 94.9 70.7 93.9 69.2 93.2 C 69.2 93.2 69.2 93.2 69.2 93.2 C 70.1 94.4 71 95.7 71.8 96.4 C 71.8 96.5 70.7 96.1 68.5 93 Z " fill="rgb(54,169,225)"/><path d=" M 25.2 67.2 C 24.6 68.3 23.4 71.2 24.1 73.9 C 25 77.5 28.8 79.6 28.8 79.6 C 28.8 79.6 31.1 75.9 30.2 72.3 C 29.3 68.7 25.5 66.6 25.5 66.6 L 25.5 66.6 C 25.6 66.9 25.8 67.2 26 67.6 C 26.2 68 26.4 68.4 26.5 68.8 C 28.5 71.3 28.6 72.3 28.6 72.3 C 28.3 71.6 27.6 70.7 26.9 69.8 C 28.1 73.4 28.2 77.1 28.2 77.1 C 27.6 74 27 71.8 26.5 70.3 C 26.5 70.3 26.5 70.3 26.5 70.3 C 26.2 71.8 25.9 73.3 25.9 74.4 C 25.9 74.4 25.5 73.3 26.2 69.6 C 25.8 68.2 25.4 67.5 25.2 67.2 Z " fill="rgb(54,169,225)"/><path d=" M 17.8 58 C 17.4 57.9 16.3 57.5 14.1 57.2 C 9.3 59.4 7.7 59.1 7.7 59.1 C 9.1 58.9 11.2 57.9 13.1 57.1 C 13.1 57.1 13.1 57.1 13.2 57.1 C 10.9 56.9 7.8 56.7 3.5 56.9 C 3.5 56.9 8.5 56 13.7 56.5 C 12.3 55.8 10.9 55.1 9.9 54.9 C 9.9 54.9 11.3 54.8 15.2 56.7 C 15.8 56.8 16.4 56.9 17 57.1 C 17.6 57.2 18.1 57.4 18.5 57.5 C 18.5 57.5 18.5 57.5 18.5 57.5 C 18.5 57.5 14.5 53 9.4 52.8 C 4.3 52.6 0 56.9 0 56.9 C 0 56.9 4 61.4 9.1 61.6 C 13 61.6 16.5 59.1 17.8 58 Z " fill="rgb(54,169,225)"/><path d=" M 56.4 57.8 C 56.3 57.4 55.9 56.4 54.9 54.5 C 50.5 52 49.8 50.7 49.8 50.7 C 50.8 51.7 52.6 52.7 54.4 53.7 C 54.4 53.7 54.4 53.7 54.4 53.7 C 53.3 51.9 51.6 49.4 49.1 46.1 C 49.1 46.1 52.6 49.4 55.2 53.7 C 55 52.2 54.7 50.8 54.3 49.9 C 54.3 49.9 55.2 50.9 55.9 55 C 56.2 55.5 56.4 56.1 56.7 56.6 C 56.9 57.2 57.1 57.6 57.3 58 C 57.3 58 57.3 58 57.3 58 C 57.3 58 58.5 52.4 55.7 48.4 C 52.9 44.4 47.3 43.5 47.3 43.5 C 47.3 43.5 46.1 49.1 48.9 53.1 C 50.9 56.2 54.7 57.4 56.4 57.8 Z " fill="rgb(54,169,225)"/><path d=" M 55.2 73.6 C 53.2 72.6 52.1 72.2 51.7 72.1 C 52.2 73.8 53.6 77.8 56.9 80 C 61.2 82.8 67.1 81.3 67.1 81.3 C 67.1 81.3 66 75.4 61.7 72.6 C 57.4 69.8 51.5 71.3 51.5 71.3 C 51.5 71.3 51.5 71.3 51.5 71.3 C 51.9 71.4 52.4 71.6 53 71.8 C 53.6 72 54.1 72.3 54.7 72.5 C 59 73.1 60.1 74 60.1 74 C 59.1 73.6 57.6 73.3 56 73.2 C 60.6 75.8 64.2 79.4 64.2 79.4 C 60.7 76.8 58.1 75.1 56.1 74.1 C 56.1 74.1 56.1 74.1 56.1 74.1 C 57.2 75.9 58.3 77.8 59.4 78.8 C 59.4 78.8 57.9 78.1 55.2 73.6 Z " fill="rgb(255,220,0)"/><path d=" M 40.1 101.8 C 40.8 101.5 41.4 101.3 41.9 101.1 C 41.9 101.1 41.9 101.1 41.9 101.1 C 41.9 101.1 34.8 99.6 29.7 103.1 C 24.6 106.6 23.5 113.8 23.5 113.8 C 23.5 113.8 30.6 115.3 35.7 111.8 C 39.6 109.1 41.2 104.2 41.7 102.1 C 41.2 102.2 39.9 102.7 37.6 104 C 34.5 109.5 32.8 110.4 32.8 110.4 C 34 109.2 35.3 106.8 36.5 104.6 C 36.5 104.6 36.5 104.6 36.5 104.5 C 34.2 105.9 31 108 27 111.3 C 27 111.3 31.1 106.8 36.6 103.6 C 34.7 103.9 32.9 104.2 31.7 104.8 C 31.7 104.8 32.9 103.7 38.1 102.7 C 38.8 102.5 39.4 102.1 40.1 101.8 Z " fill="rgb(54,169,225)"/><path d=" M 40.7 42.7 C 40.7 42.2 40.6 40.8 40 38.2 C 35.5 33.7 35.2 31.8 35.2 31.8 C 36 33.3 38 35.2 39.7 37 C 39.7 37 39.7 37 39.7 37.1 C 39 34.5 37.9 30.9 35.9 26.1 C 35.9 26.1 39 31.3 40.6 37.5 C 40.8 35.6 41 33.8 40.8 32.5 C 40.8 32.5 41.5 34 41 39.2 C 41.1 39.9 41.3 40.7 41.4 41.4 C 41.5 42.2 41.6 42.8 41.6 43.3 C 41.6 43.3 41.6 43.3 41.6 43.3 C 41.6 43.3 45 36.9 43.1 31.1 C 41.2 25.3 34.6 22.2 34.6 22.2 C 34.6 22.2 31.2 28.6 33.1 34.4 C 34.6 38.8 38.9 41.6 40.7 42.7 Z " fill="rgb(40,53,129)"/><path d=" M 95.3 14.8 C 95.2 14.5 95.1 14.1 95 13.6 C 94.9 13.1 94.8 12.6 94.8 12.1 C 93.4 8.9 93.5 7.8 93.5 7.8 C 93.7 8.7 94.1 9.8 94.7 10.9 C 94.4 6.7 95.3 2.8 95.3 2.8 C 95.1 6.2 95.1 8.7 95.2 10.5 C 95.2 10.5 95.2 10.5 95.2 10.5 C 95.9 9 96.7 7.4 96.9 6.3 C 96.9 6.3 97.1 7.6 95.2 11.3 C 95.4 13.1 95.6 14 95.7 14.3 C 96.6 13.2 98.7 10.6 98.7 7.4 C 98.7 3.3 95.2 0 95.2 0 C 95.2 0 91.7 3.3 91.7 7.4 C 91.9 11.5 95.3 14.8 95.3 14.8 L 95.3 14.8 Z " fill="rgb(40,53,129)"/><path d=" M 174.7 74.7 C 180.3 77.8 187.5 75.6 187.5 75.6 C 187.5 75.6 185.6 68.3 180 65.2 C 174.4 62.1 167.2 64.3 167.2 64.3 C 167.2 64.3 167.2 64.3 167.2 64.3 C 167.7 64.4 168.3 64.6 169.1 64.9 C 169.8 65.1 170.6 65.4 171.3 65.7 C 176.7 66.1 178.1 67.2 178.1 67.2 C 176.8 66.8 174.9 66.6 172.9 66.5 C 178.9 69.3 183.6 73.5 183.6 73.5 C 179.1 70.6 175.6 68.7 173.1 67.5 C 173.1 67.5 173.1 67.5 173.1 67.6 C 174.6 69.7 176.1 72 177.6 73.2 C 177.6 73.2 175.7 72.5 172 67 C 169.5 65.9 168 65.5 167.5 65.4 C 168.3 67.4 170.4 72.3 174.7 74.7 Z " fill="rgb(40,53,129)"/><path d=" M 145 93.2 C 145.7 94 147.7 95.9 150.1 96.1 C 153.3 96.4 156.2 94 156.2 94 C 156.2 94 153.9 91 150.7 90.7 C 147.5 90.4 144.6 92.8 144.6 92.8 C 144.6 92.8 144.6 92.8 144.6 92.8 C 144.9 92.8 145.2 92.7 145.6 92.7 C 146 92.7 146.4 92.6 146.8 92.6 C 149.4 91.7 150.2 91.9 150.2 91.9 C 149.5 91.9 148.6 92.2 147.7 92.6 C 151 92.7 154 93.8 154 93.8 C 151.3 93.3 149.4 93.1 148 93.1 C 148 93.1 148 93.1 148 93.1 C 149.1 93.8 150.3 94.5 151.1 94.8 C 151.1 94.8 150.1 94.8 147.3 93.1 C 146 93.1 145.2 93.2 145 93.2 Z " fill="rgb(40,53,129)"/><path d=" M 120.8 51.8 C 120.4 53.1 120.3 53.9 120.3 54.1 C 121.3 53.6 123.6 52.3 124.6 50 C 125.8 47 124.3 43.6 124.3 43.6 C 124.3 43.6 120.8 44.9 119.5 47.9 C 118.3 50.9 119.8 54.3 119.8 54.3 L 119.8 54.3 C 119.8 54 119.9 53.7 120 53.3 C 120.1 52.9 120.2 52.5 120.3 52.2 C 120.2 49.5 120.7 48.7 120.7 48.7 C 120.6 49.4 120.6 50.3 120.6 51.3 C 121.7 48.2 123.5 45.6 123.5 45.6 C 122.3 48 121.6 49.8 121.1 51.2 C 121.1 51.2 121.1 51.2 121.1 51.2 C 122.1 50.3 123.1 49.4 123.6 48.7 C 123.5 48.6 123.3 49.6 120.8 51.8 Z " fill="rgb(54,169,225)"/><path d=" M 131.6 24.3 C 131.7 24 131.7 23.7 131.8 23.3 C 131.9 22.9 132 22.5 132.1 22.2 C 132.1 19.5 132.6 18.7 132.6 18.7 C 132.4 19.4 132.4 20.3 132.4 21.3 C 133.6 18.2 135.5 15.7 135.5 15.7 C 134.2 18.1 133.4 19.9 132.9 21.2 C 132.9 21.2 132.9 21.2 132.9 21.2 C 133.9 20.4 135 19.5 135.5 18.8 C 135.5 18.8 135.2 19.8 132.6 21.8 C 132.1 23.1 132 23.8 132 24.1 C 133 23.7 135.4 22.4 136.4 20.2 C 137.7 17.3 136.4 13.8 136.4 13.8 C 136.4 13.8 132.8 15 131.5 17.9 C 130.2 20.8 131.6 24.3 131.6 24.3 L 131.6 24.3 Z " fill="rgb(40,53,129)"/><path d=" M 144.7 82.7 C 145.8 82.7 148.5 82.7 150.4 81.1 C 152.9 79.1 153.2 75.3 153.2 75.3 C 153.2 75.3 149.5 74.8 147 76.9 C 144.5 78.9 144.2 82.7 144.2 82.7 C 144.2 82.7 144.2 82.7 144.2 82.7 C 144.4 82.5 144.6 82.2 144.8 81.9 C 145 81.6 145.3 81.3 145.6 81 C 146.8 78.5 147.5 78.1 147.5 78.1 C 147.1 78.6 146.6 79.5 146.2 80.4 C 148.6 78.1 151.4 76.7 151.4 76.7 C 149.2 78.3 147.7 79.5 146.6 80.5 C 146.6 80.5 146.6 80.5 146.6 80.5 C 147.9 80.2 149.2 79.9 150 79.5 C 150 79.5 149.3 80.2 146.1 81 C 145.2 81.9 144.8 82.5 144.7 82.7 Z " fill="rgb(40,53,129)"/><path d=" M 170.1 87.3 C 170.1 87.3 166.6 84.4 162.7 84.9 C 158.9 85.4 156.1 89.1 156.1 89.1 C 156.1 89.1 156.1 89.1 156.1 89.1 C 156.4 89 156.8 88.9 157.2 88.7 C 157.6 88.5 158.1 88.4 158.6 88.3 C 161.4 86.6 162.5 86.6 162.5 86.6 C 161.7 86.8 160.7 87.4 159.7 88.1 C 163.6 87.3 167.4 87.7 167.4 87.7 C 164.1 87.9 161.8 88.2 160.1 88.5 C 160.1 88.5 160.1 88.5 160.1 88.5 C 161.6 89 163.2 89.6 164.3 89.6 C 164.3 89.6 163.1 89.9 159.3 88.6 C 157.7 89 156.8 89.3 156.6 89.4 C 157.7 90.2 160.5 91.8 163.5 91.4 C 167.3 91 170.1 87.3 170.1 87.3 Z " fill="rgb(255,220,0)"/><path d=" M 109.4 48.4 C 109.7 48.1 110.1 47.8 110.4 47.5 C 110.8 47.2 111.1 46.9 111.3 46.7 L 111.3 46.7 C 111.3 46.7 106.7 47.1 104.3 50.1 C 101.9 53.1 102.5 57.6 102.5 57.6 C 102.5 57.6 107.1 57.2 109.5 54.2 C 111.4 51.9 111.4 48.6 111.4 47.3 C 111.1 47.5 110.4 48 109.3 49.2 C 108.4 53.1 107.5 53.9 107.5 53.9 C 108 52.9 108.4 51.3 108.7 49.8 C 108.7 49.8 108.7 49.8 108.7 49.8 C 107.5 51.1 106 52.9 104.2 55.6 C 104.2 55.6 105.9 52.2 108.6 49.2 C 107.5 49.7 106.5 50.2 105.9 50.8 C 105.9 50.8 106.5 49.9 109.4 48.4 Z " fill="rgb(255,220,0)"/><path d=" M 135.1 25.9 C 132.5 28.8 132.9 33.4 132.9 33.4 C 132.9 33.4 132.9 33.4 132.9 33.4 C 133.1 33.1 133.2 32.8 133.5 32.4 C 133.7 32 134 31.6 134.3 31.2 C 135.3 28 136.1 27.4 136.1 27.4 C 135.7 28.1 135.3 29.2 135 30.3 C 137.5 27.1 140.6 24.9 140.6 24.9 C 138.3 27.2 136.7 29 135.6 30.3 C 135.6 30.3 135.6 30.3 135.6 30.3 C 137 29.7 138.6 29.1 139.5 28.4 C 139.5 28.4 138.8 29.4 135.1 30.9 C 134.1 32.3 133.7 33 133.6 33.3 C 134.9 33.1 138.1 32.6 140.1 30.3 C 142.7 27.4 142.3 22.8 142.3 22.8 C 142.3 22.8 137.7 23 135.1 25.9 Z " fill="rgb(54,169,225)"/><path d=" M 135.3 104.4 C 136.5 99.3 134.1 94.2 133 92.2 C 132.7 92.7 132 94 131.1 96.8 C 132.7 103.6 131.9 105.5 131.9 105.5 C 132 103.6 131.3 100.7 130.7 98.1 C 130.7 98.1 130.7 98 130.7 98 C 129.8 100.8 128.9 104.9 128 110.5 C 128 110.5 128 103.9 130 97.2 C 128.7 98.8 127.5 100.4 127 101.7 C 127 101.7 127.2 99.9 130.7 95.3 C 131 94.5 131.3 93.8 131.6 93 C 131.9 92.2 132.2 91.6 132.5 91.1 C 132.5 91.1 132.5 91.1 132.5 91.1 C 132.5 91.1 125.7 95.1 124.1 101.7 C 122.6 108.3 127 114.9 127 114.9 C 127 114.9 133.8 111 135.3 104.4 Z " fill="rgb(40,53,129)"/><path d=" M 120 37.4 C 120.1 36.9 120.2 35.3 120 32.4 C 115.9 26.8 115.9 24.6 115.9 24.6 C 116.6 26.4 118.3 28.8 119.9 31 C 119.9 31 119.9 31 119.9 31.1 C 119.6 28.1 118.9 24.1 117.6 18.5 C 117.6 18.5 120.1 24.6 120.8 31.6 C 121.4 29.6 121.9 27.7 121.9 26.2 C 121.9 26.2 122.4 27.9 121 33.5 C 121 34.3 121.1 35.1 121 35.9 C 121 36.7 120.9 37.4 120.9 38 L 120.9 38 C 120.9 38 125.7 31.6 124.5 25 C 123.4 18.4 116.8 14 116.8 14 C 116.8 14 112 20.4 113.2 27 C 114.1 32.2 118.2 36 120 37.4 Z " fill="rgb(255,220,0)"/><path d=" M 143 109 C 143.2 108.6 143.4 108.2 143.5 108 L 143.5 108 C 143.5 108 139.7 110.2 138.9 113.8 C 138.1 117.4 140.5 121 140.5 121 C 140.5 121 144.3 118.8 145.1 115.2 C 145.7 112.4 144.5 109.6 143.8 108.5 C 143.6 108.8 143.2 109.5 142.7 111 C 143.6 114.7 143.2 115.8 143.2 115.8 C 143.2 114.7 142.9 113.2 142.5 111.7 C 142.5 111.7 142.5 111.7 142.5 111.7 C 142 113.3 141.5 115.5 141 118.6 C 141 118.6 141 114.9 142.1 111.3 C 141.4 112.2 140.7 113.1 140.4 113.8 C 140.4 113.8 140.5 112.8 142.4 110.3 C 142.6 109.8 142.8 109.4 143 109 Z " fill="rgb(255,220,0)"/><path d=" M 107.5 23.8 C 107.5 23.5 107.4 22.7 107 21.1 C 104.3 18.4 104 17.3 104 17.3 C 104.5 18.2 105.7 19.3 106.8 20.4 C 106.8 20.4 106.8 20.4 106.8 20.4 C 106.4 18.8 105.6 16.7 104.4 13.8 C 104.4 13.8 106.3 16.9 107.4 20.6 C 107.5 19.5 107.6 18.4 107.5 17.6 C 107.5 17.6 108 18.5 107.7 21.6 C 107.8 22 107.9 22.5 107.9 22.9 C 108 23.4 108 23.7 108 24 L 108 24 C 108 24 110 20.1 108.8 16.6 C 107.6 13.1 103.6 11.3 103.6 11.3 C 103.6 11.3 101.6 15.2 102.8 18.7 C 103.7 21.5 106.3 23.2 107.5 23.8 Z " fill="rgb(54,169,225)"/><path d=" M 123.6 91.9 C 124 91.8 124.4 91.7 124.7 91.6 C 124.7 91.6 124.7 91.6 124.7 91.6 C 124.7 91.6 120.5 90.2 117.3 92 C 114 93.8 112.9 98 112.9 98 C 112.9 98 117.1 99.4 120.3 97.6 C 122.8 96.2 124.1 93.4 124.5 92.2 C 124.2 92.3 123.4 92.4 121.9 93.1 C 119.7 96.2 118.6 96.6 118.6 96.6 C 119.4 95.9 120.3 94.6 121.2 93.4 C 121.2 93.4 121.2 93.4 121.2 93.4 C 119.7 94.1 117.7 95.1 115.1 96.8 C 115.1 96.8 117.9 94.4 121.3 92.8 C 120.2 92.9 119.1 92.9 118.3 93.2 C 118.3 93.2 119.1 92.6 122.3 92.4 C 122.7 92.2 123.2 92 123.6 91.9 Z " fill="rgb(54,169,225)"/><path d=" M 164.3 67.7 C 164.5 67.3 164.7 67 164.8 66.7 L 164.8 66.7 C 164.8 66.7 161 68.8 160.1 72.4 C 159.2 76 161.5 79.7 161.5 79.7 C 161.5 79.7 165.3 77.6 166.2 74 C 166.9 71.2 165.7 68.4 165.1 67.3 C 164.9 67.6 164.5 68.3 164 69.8 C 164.8 73.5 164.3 74.6 164.3 74.6 C 164.4 73.5 164 72 163.7 70.5 C 163.7 70.5 163.7 70.5 163.7 70.5 C 163.2 72.1 162.6 74.3 162 77.3 C 162 77.3 162.1 73.7 163.3 70 C 162.6 70.9 161.9 71.7 161.6 72.5 C 161.6 72.5 161.7 71.5 163.7 69 C 163.9 68.5 164.1 68.1 164.3 67.7 Z " fill="rgb(54,169,225)"/><path d=" M 171.9 57.4 C 171.9 57.4 171.9 57.4 171.9 57.4 C 172.3 57.3 172.8 57.2 173.4 57 C 174 56.9 174.6 56.7 175.2 56.6 C 179.1 54.7 180.5 54.8 180.5 54.8 C 179.4 55 178.1 55.7 176.7 56.4 C 182 55.9 186.9 56.8 186.9 56.8 C 182.6 56.6 179.4 56.8 177.2 57 C 177.2 57 177.2 57 177.3 57 C 179.2 57.8 181.2 58.8 182.7 59 C 182.7 59 181.1 59.3 176.3 57.1 C 174.1 57.4 173 57.7 172.6 57.9 C 174 59 177.4 61.5 181.4 61.4 C 186.5 61.2 190.5 56.7 190.5 56.7 C 190.5 56.7 186.2 52.5 181.1 52.6 C 175.9 52.9 171.9 57.4 171.9 57.4 Z " fill="rgb(54,169,225)"/><path d=" M 134.8 48.4 C 132 52.4 133.2 58 133.2 58 C 133.2 58 133.2 58 133.2 58 C 133.3 57.6 133.5 57.2 133.8 56.6 C 134 56.1 134.3 55.5 134.6 55 C 135.3 50.9 136.2 49.9 136.2 49.9 C 135.8 50.8 135.5 52.3 135.3 53.7 C 137.9 49.4 141.4 46.1 141.4 46.1 C 138.8 49.3 137.2 51.8 136.1 53.7 C 136.1 53.7 136.1 53.7 136.1 53.7 C 137.8 52.7 139.7 51.7 140.7 50.7 C 140.7 50.7 140 52.1 135.6 54.5 C 134.6 56.3 134.2 57.4 134.1 57.8 C 135.7 57.4 139.6 56.2 141.7 53.1 C 144.5 49.1 143.3 43.5 143.3 43.5 C 143.3 43.5 137.5 44.3 134.8 48.4 Z " fill="rgb(40,53,129)"/><path d=" M 137.4 71.9 C 138 71.7 138.5 71.5 138.9 71.4 C 138.9 71.4 138.9 71.4 138.9 71.4 C 138.9 71.4 133 70 128.7 72.7 C 124.4 75.5 123.3 81.4 123.3 81.4 C 123.3 81.4 129.2 82.8 133.5 80.1 C 136.8 78 138.3 73.9 138.7 72.2 C 138.3 72.3 137.2 72.7 135.2 73.7 C 132.5 78.2 131 78.9 131 78.9 C 132.1 77.9 133.2 76 134.3 74.2 C 134.3 74.2 134.3 74.2 134.3 74.2 C 132.3 75.3 129.6 77 126.2 79.5 C 126.2 79.5 129.8 75.9 134.4 73.3 C 132.8 73.5 131.3 73.7 130.3 74.1 C 130.3 74.1 131.4 73.2 135.7 72.6 C 136.2 72.3 136.8 72.1 137.4 71.9 Z " fill="rgb(255,220,0)"/><path d=" M 152.8 104 C 150.5 102.7 149.2 102.2 148.7 102.1 C 149.2 104.2 150.7 109.1 154.7 111.8 C 159.8 115.3 166.9 113.8 166.9 113.8 C 166.9 113.8 165.8 106.6 160.7 103.1 C 155.6 99.6 148.5 101.1 148.5 101.1 C 148.5 101.1 148.5 101.1 148.5 101.1 C 149 101.3 149.6 101.5 150.3 101.8 C 151 102.1 151.7 102.4 152.3 102.8 C 157.5 103.7 158.7 104.9 158.7 104.9 C 157.5 104.4 155.7 104 153.8 103.7 C 159.3 107 163.4 111.4 163.4 111.4 C 159.3 108.2 156.2 106 153.9 104.6 C 153.9 104.6 153.9 104.6 153.9 104.7 C 155.1 106.9 156.4 109.2 157.6 110.5 C 157.6 110.5 155.9 109.6 152.8 104 Z " fill="rgb(54,169,225)"/><path d=" M 148.7 43.2 C 148.7 42.7 148.8 42.1 148.9 41.3 C 149 40.6 149.1 39.8 149.3 39.1 C 148.7 33.9 149.5 32.4 149.5 32.4 C 149.3 33.7 149.5 35.5 149.7 37.4 C 151.3 31.2 154.4 26 154.4 26 C 152.4 30.8 151.3 34.4 150.6 37 C 150.6 37 150.6 37 150.6 36.9 C 152.3 35.1 154.2 33.2 155.1 31.7 C 155.1 31.7 154.7 33.6 150.3 38.1 C 149.7 40.7 149.6 42.1 149.6 42.6 C 151.5 41.5 155.7 38.7 157.2 34.2 C 159.1 28.4 155.7 22 155.7 22 C 155.7 22 149.1 25.1 147.2 30.9 C 145.3 36.8 148.7 43.2 148.7 43.2 C 148.7 43.2 148.7 43.2 148.7 43.2 Z " fill="rgb(40,53,129)"/><path d=" M 389.1 150.9 C 338.2 149.3 286.5 152 236 159.4 C 222.2 161.2 208.3 163.7 194.6 166.3 C 185.5 168.1 176.5 170 167.5 172.1 C 166 172.4 153.2 175.4 145.1 176.3 C 141.5 176.7 141.4 176.1 138.1 174.4 C 138.1 174.4 138.1 174.4 138.1 174.4 C 136.5 173.3 134.9 172.3 133.3 171.4 C 133.3 171.4 133.3 171.4 133.3 171.4 L 133.3 171.4 C 134.4 170.5 139.4 166.5 142.4 163.6 C 147.1 159.1 147.5 154.3 147.1 151.3 C 152.3 151.9 157 157.1 157 157.1 L 156.9 156.6 C 154.8 152.8 151.1 150.8 146.9 149.8 C 146.8 149.3 146.6 148.8 146.5 148.5 C 146 146.3 144.6 144.4 142.4 143.1 C 136.2 139.3 131.3 141.7 127.9 144 C 125.8 145.4 123.4 147.6 121 149.6 C 118.2 149.2 115.5 148.4 113.1 146.7 C 108.3 143.4 105.9 137.6 104.7 132 C 103.8 127.7 103.3 123.3 103.4 118.9 C 103.6 112.8 103.8 110.1 104.7 105.8 C 105.4 102.2 106.7 98.7 108.7 95.7 C 109.9 93.9 111.4 92.3 113.2 91.1 C 117 88.5 121.5 87.9 126.2 87.9 C 127.8 87.9 129.3 88 130.9 88.1 C 134.9 90.7 138.9 93.4 142 97 C 145.1 100.6 147.3 105.4 146.7 110.2 C 146.7 110.2 149.2 103.3 142.6 94.7 C 141.7 93.6 140.5 92.4 139.3 91.3 C 138.1 90.2 136.8 89.2 135.7 88.4 C 135.8 88.4 136 88.4 136.1 88.4 C 137.1 88.5 138.1 88.5 139.1 88.5 C 140.6 88.5 142.2 88.5 143.7 88.3 C 146.2 88 148.7 87.5 150.9 86.5 C 153.5 85.3 155.7 83.5 157.1 81 L 157.2 80.5 L 157.2 80.5 L 157.2 80.5 C 157.2 80.5 152.4 85.9 147.1 86.4 C 146.1 86.5 145 86.6 143.8 86.6 C 143.2 86.6 142.7 86.6 142.1 86.6 C 140.4 86.6 138.6 86.5 136.9 86.4 C 136.3 86.4 135.8 86.3 135.2 86.3 C 131.3 86 127.7 85.5 125.4 85.2 C 124.7 85.1 124.2 85.1 123.8 85 C 123.4 85 122.9 84.9 122.4 84.9 C 121.4 84.8 120.2 84.7 118.9 84.7 C 117.9 84.7 116.9 84.8 115.7 85 C 115.3 85.1 115 85.2 114.6 85.3 C 112.3 85.9 109.9 87.2 107.5 89.6 C 107.4 89.7 107.3 89.8 107.2 90 C 110 84.7 113.8 79.9 118.4 76 C 119.6 75 120.7 74.2 122 73.3 C 125.7 70.8 129.6 68.6 133.5 66.3 C 136.7 67.4 143.9 69.1 153.9 67.5 C 167.6 65.3 169.1 58.6 169.1 58.6 L 169.1 58.6 C 166.8 62.8 152.5 68.1 138.1 63.5 C 138.6 63.2 139 62.9 139.5 62.6 C 140.4 62 141.2 61.4 142 60.7 C 145.7 57.7 149 54.1 151 50 C 151.5 49.1 151.8 48.1 152.2 47.2 C 152.7 45.8 153 44.2 153.1 42.7 C 153.1 42.7 152.6 43.8 151.7 45.4 C 149.6 49.1 145 55.7 137.4 60.4 C 127.4 66.6 120.3 69.7 114.6 73.4 C 115.1 71.7 115.6 70.1 116 68.4 C 116 68.4 116.1 68.4 116.2 68.3 C 116.2 68.3 116.2 68.3 116.3 68.3 C 116.5 68.1 117 67.8 117.6 67.4 C 119.5 66 122.9 63.1 125.7 59.4 C 126.6 58.1 127.5 56.8 128.2 55.4 C 129.1 53.6 129.7 51.7 130 49.8 C 130.1 49.2 130.1 48.6 130.2 48 C 130.6 47.8 130.9 47.6 131.2 47.4 C 131.6 47.2 131.9 47 132.3 46.7 C 136 44 138.6 39.7 138.9 35.2 L 138.9 35.2 C 138.9 35.2 138.9 35.2 138.9 35.2 C 138.9 35.2 138.5 36.5 137.8 38.1 C 137.5 38.6 137.2 39.2 136.9 39.8 C 136.5 40.4 136.1 41 135.7 41.5 C 135.3 42 134.8 42.6 134.2 43 C 133.4 43.6 132.6 44.1 131.6 44.4 C 131.2 44.5 130.7 44.6 130.2 44.7 C 130 40.5 128.9 37.8 128.1 36.4 C 127.6 35.6 127.2 35.2 127.2 35.2 C 127.5 35.8 127.7 36.5 127.9 37.2 C 130.6 46.8 126.3 57.9 117.9 63.4 C 117.6 63.6 117.2 63.8 116.9 64 C 118.2 52.8 115.8 41.2 110 31.5 C 109.6 30.9 109.2 30.2 108.8 29.6 C 108.8 29.6 112.2 36.1 114 45.5 C 114.7 49 115.1 52.8 115 56.8 C 115 57.4 115 58 115 58.5 C 114.9 61.4 114.5 64.4 113.7 67.5 C 113.6 67.8 113.6 68 113.5 68.3 C 112.5 68.2 110.8 67.7 108 65.8 C 107.6 65.5 107.2 65.2 106.7 64.9 C 103.2 62.1 101 58.9 99.6 56.2 C 97.9 52.7 97.6 49.9 97.6 49.9 C 97.6 49.9 97.6 49.9 97.6 49.9 L 97.6 49.9 C 97.7 52.2 98.1 54.4 98.7 56.3 C 98.9 56.8 99 57.3 99.2 57.7 C 99.6 58.6 100 59.5 100.4 60.3 C 100.6 60.7 100.9 61.1 101.1 61.5 C 99.6 64.2 98.7 66.9 98.4 69.5 C 98.2 70.8 98.1 72.1 98.1 73.3 C 98.1 74 98.2 74.7 98.2 75.3 C 98.4 77.4 98.9 79.3 99.4 80.9 C 99.5 81.2 99.6 81.6 99.8 81.9 C 100.6 83.9 101.5 85.5 102.4 86.4 C 100 89.9 97.7 93.9 95.7 98.4 C 93.7 93.9 91.4 89.9 89 86.4 C 89.8 85.5 90.8 83.9 91.6 81.9 C 91.7 81.6 91.9 81.2 92 80.9 C 92.4 79.7 92.7 78.5 93 77.1 C 93.2 75.9 93.3 74.6 93.4 73.3 C 93.4 72.1 93.3 70.8 93.1 69.5 C 92.7 66.9 91.9 64.2 90.4 61.5 C 90.6 61.1 90.9 60.7 91.1 60.3 C 91.5 59.5 92 58.6 92.3 57.7 C 92.5 57.2 92.6 56.8 92.8 56.3 C 93.4 54.4 93.8 52.2 93.9 49.9 L 93.9 49.9 C 93.9 49.9 93.9 49.9 93.9 49.9 C 93.9 49.9 93.6 52.1 92.4 55 C 91.1 58 88.9 61.7 84.8 64.9 C 84.4 65.2 83.9 65.6 83.5 65.8 C 80.7 67.8 78.9 68.3 78 68.3 C 77.9 68 77.9 67.8 77.8 67.5 C 77.1 64.5 76.7 61.4 76.5 58.5 C 76.5 57.9 76.5 57.3 76.5 56.8 C 76.5 52.8 76.9 48.9 77.5 45.5 C 79.3 36.1 82.7 29.6 82.7 29.6 C 82.3 30.2 81.9 30.9 81.5 31.5 C 75.7 41.2 73.4 52.8 74.6 64 C 74.3 63.8 73.9 63.6 73.6 63.4 C 65.2 58 61 46.8 63.6 37.2 C 63.8 36.5 64 35.9 64.3 35.2 C 64.3 35.2 63.9 35.6 63.4 36.4 C 62.6 37.8 61.4 40.5 61.3 44.7 C 60.8 44.7 60.4 44.6 59.9 44.4 C 59 44.1 58.1 43.6 57.3 43 C 56.8 42.6 56.3 42 55.8 41.5 C 55.4 41 55 40.4 54.6 39.8 C 54.2 39.2 53.9 38.7 53.7 38.1 C 52.9 36.5 52.6 35.2 52.6 35.2 C 52.6 35.2 52.6 35.2 52.6 35.2 L 52.6 35.2 C 53 39.8 55.5 44 59.2 46.7 C 59.5 47 59.9 47.2 60.3 47.4 C 60.6 47.6 61 47.8 61.3 48 C 61.3 48.6 61.4 49.2 61.5 49.8 C 61.8 51.8 62.4 53.7 63.3 55.4 C 64 56.8 64.9 58.2 65.8 59.4 C 66.8 60.7 67.8 61.9 68.9 63 C 68.9 63 69 63.1 69 63.1 C 70.9 65 72.7 66.5 73.9 67.4 C 74.5 67.8 74.9 68.2 75.2 68.3 C 75.2 68.3 75.3 68.3 75.3 68.3 C 75.4 68.4 75.5 68.4 75.5 68.4 C 75.9 70.1 76.3 71.8 76.9 73.4 C 71.2 69.7 64.1 66.6 54.1 60.4 C 46.5 55.7 42 49.1 39.8 45.4 C 38.8 43.7 38.4 42.7 38.4 42.7 C 38.5 44.3 38.8 45.8 39.3 47.2 C 39.6 48.2 40 49.1 40.5 50 C 42.5 54.1 45.8 57.7 49.5 60.7 C 50.3 61.4 51.2 62 52 62.6 C 52.5 62.9 52.9 63.2 53.4 63.5 C 39 68.1 24.6 62.8 22.4 58.6 L 22.4 58.6 C 22.4 58.6 23.9 65.3 37.6 67.5 C 47.6 69.1 54.8 67.4 58 66.3 C 60.6 67.8 63.2 69.3 65.7 70.9 C 67 71.7 68.2 72.5 69.5 73.3 C 70.7 74.1 71.9 75 73.1 76 C 77.7 79.8 81.5 84.6 84.3 90 C 84.2 89.9 84.1 89.8 84 89.6 C 81.6 87.2 79.2 86 76.9 85.3 C 76.5 85.2 76.1 85.1 75.8 85 C 74.7 84.8 73.6 84.7 72.6 84.7 C 71.3 84.7 70.1 84.8 69.1 84.9 C 68.6 85 68.1 85 67.7 85 C 67.3 85 66.7 85.1 66.1 85.2 C 63.8 85.5 60.2 86 56.3 86.3 C 55.7 86.3 55.2 86.4 54.6 86.4 C 52.9 86.5 51.1 86.6 49.4 86.6 C 48.8 86.6 48.3 86.6 47.7 86.6 C 46.6 86.6 45.5 86.5 44.4 86.4 C 39.1 85.9 34.3 80.5 34.3 80.5 L 34.3 80.5 L 34.3 80.5 L 34.4 81 C 35.8 83.6 38 85.4 40.6 86.5 C 42.8 87.5 45.2 88 47.8 88.3 C 49.3 88.5 50.9 88.5 52.4 88.5 C 53.4 88.5 54.4 88.4 55.4 88.4 C 55.5 88.4 55.7 88.4 55.8 88.4 C 54.7 89.2 53.4 90.2 52.2 91.3 C 51 92.4 49.8 93.6 48.9 94.7 C 42.3 103.3 44.8 110.2 44.8 110.2 C 44.2 105.4 46.3 100.7 49.5 97 C 52.6 93.4 56.6 90.7 60.6 88.1 C 62.2 88 63.7 87.9 65.3 87.9 C 70 87.8 74.5 88.5 78.3 91.1 C 80.1 92.3 81.6 93.9 82.8 95.7 C 84.8 98.7 86 102.3 86.8 105.8 C 87.7 110.1 87.9 112.8 88.1 118.9 C 88.2 123.3 87.7 127.7 86.8 132 C 85.6 137.7 83.2 143.5 78.4 146.7 C 76 148.3 73.3 149.2 70.5 149.6 C 68.1 147.6 65.7 145.4 63.6 144 C 60.2 141.7 55.3 139.3 49.1 143.1 C 46.9 144.5 45.5 146.3 45 148.5 C 44.9 148.8 44.8 149.2 44.6 149.8 C 40.4 150.8 36.6 152.8 34.6 156.6 L 34.5 157.1 C 34.5 157.1 39.1 151.9 44.4 151.3 C 44 154.3 44.4 159.1 49.1 163.6 C 52.1 166.5 57.1 170.5 58.2 171.4 C 55 170.3 47.8 168.6 37.9 170.2 C 24.2 172.4 22.7 179.1 22.7 179.1 C 25 174.9 39.3 169.6 53.7 174.2 C 53.2 174.5 52.8 174.8 52.3 175.1 C 45.5 179.9 39.3 186.7 38.7 195 C 38.7 195 43.4 184.1 54.4 177.2 C 64.4 171 71.5 167.9 77.2 164.2 C 76.7 165.9 76.2 167.5 75.8 169.2 C 75.6 169.3 63.4 177.4 61.9 188 C 61.8 188.6 61.8 189.2 61.7 189.8 C 56.9 192.2 53.4 197.2 52.9 202.6 C 52.9 202.6 55.5 193.6 61.6 193.2 C 61.9 200 64.6 202.8 64.6 202.8 C 60.6 192.4 65.3 179.5 74.9 174 C 73.5 185.9 76.3 198.4 83 208.4 C 83 208.4 73.3 189.8 78.1 170.4 C 78.2 170.1 78.2 169.9 78.3 169.6 C 79.4 169.7 81.6 170.3 85.1 173.1 C 93.2 179.4 94.2 188.1 94.2 188.1 C 94 181.6 91.4 176.7 88.3 173.1 C 89.9 173.8 92.5 174.7 96.2 174.7 C 99.9 174.7 102.5 173.9 104.1 173.1 C 101 176.6 98.4 181.6 98.2 188.1 C 98.2 188.1 99.2 179.5 107.3 173.1 C 110.8 170.3 113 169.7 114.1 169.6 C 114.2 169.9 114.2 170.1 114.3 170.4 C 119.1 189.8 109.4 208.4 109.4 208.4 C 116 198.4 118.8 185.9 117.5 174 C 127.1 179.5 131.8 192.4 127.8 202.8 C 127.8 202.8 130.6 200 130.8 193.2 C 136.9 193.6 139.5 202.6 139.5 202.6 C 139 197.2 135.6 192.2 130.7 189.8 C 130.7 189.2 130.6 188.6 130.5 188 C 129.1 177.4 116.8 169.4 116.6 169.2 C 116.2 167.5 115.8 165.8 115.2 164.2 C 120.9 167.9 128 171 138 177.2 C 149 184.1 153.7 195 153.7 195 C 153.2 188.4 149.1 182.6 144 178.2 C 144.9 178.1 145.7 178 146.5 178 C 146.6 178 147.2 177.9 148 177.8 C 149.2 177.7 150.4 177.5 151.5 177.4 C 154.3 177 157.5 176.6 158.9 176.4 C 226.4 166.7 294.1 161 362.1 161 C 436.1 160.8 510 167.3 583.5 178.4 C 519.1 161.4 454.1 152.5 389.1 150.9 Z  M 141 145.7 C 143.2 146.7 144.4 148 145.2 149.4 C 142.2 148.9 138.9 148.9 135.9 149.1 C 132.6 149.4 129.1 149.7 125.8 149.8 C 128.6 146.4 133.6 142.3 141 145.7 Z  M 101.7 80.8 C 101.4 80.2 101.1 79.5 100.8 78.8 C 100.7 78.4 100.5 78 100.4 77.6 C 100.3 77.1 100.1 76.7 100 76.2 C 98.2 69.5 99.8 63.9 100.7 61.4 C 104.2 67 109.5 70.1 112.3 70.8 C 111.7 72.8 111.1 74.6 110.4 76.3 C 109.9 76.7 109.4 77.2 108.9 77.7 C 108.9 77.7 108.8 77.8 108.8 77.8 C 107.1 79.4 105.4 81.4 103.6 83.7 C 103.2 83.2 102.7 82.6 102.1 81.6 C 102 81.4 101.8 81.1 101.7 80.8 Z  M 86.8 83.8 C 85.1 81.5 83.3 79.5 81.6 77.9 C 81.6 77.9 81.5 77.8 81.5 77.8 C 81 77.3 80.5 76.8 80 76.4 C 79.4 74.7 78.7 72.9 78.1 70.9 C 80.9 70.2 86.2 67.1 89.7 61.5 C 90.6 64 92.1 69.6 90.4 76.3 C 90.3 76.7 90.2 77.2 90 77.7 C 89.9 78.1 89.7 78.6 89.6 78.9 C 88.5 81.5 87.5 83 86.8 83.8 Z  M 95.2 139.6 C 98.8 147.9 103.6 154.5 108 159 C 106.8 158.7 104.7 158.4 102.4 159.6 C 101.8 159.8 101.5 159.4 101.2 158.7 C 101.1 158.5 101 158.3 100.9 158 C 100.2 156.5 99 154.4 95.3 153.4 L 95.1 153.4 C 91.4 154.4 90.2 156.5 89.5 158 C 89.4 158.3 89.3 158.5 89.2 158.7 C 88.9 159.4 88.6 159.8 88 159.6 C 85.7 158.3 83.6 158.6 82.4 159 C 86.8 154.6 91.6 147.9 95.2 139.6 Z  M 49.4 145.7 C 56.8 142.3 61.7 146.4 64.6 149.8 C 61.2 149.8 57.8 149.4 54.5 149.1 C 51.5 148.9 48.3 148.9 45.2 149.4 C 46 148.1 47.2 146.7 49.4 145.7 Z  M 72.2 161.6 C 68.3 164.8 63.8 167.4 59.4 170 C 55.5 167.4 51.9 164.5 48.5 161.2 C 44.8 157.6 44 153 44.5 151 C 52.7 150.5 63.4 152.3 66.6 152.5 C 66.8 152.7 66.9 152.9 67 153.1 C 69.9 156.7 73.3 158.2 75.9 158 C 74.9 159.3 73.6 160.5 72.2 161.6 Z  M 73.8 152.8 C 76.7 152.4 79.9 151.2 83.1 148.1 C 83.2 148 83.3 147.9 83.4 147.7 C 82.8 148.8 82.2 149.8 81.6 150.8 C 80.6 152.3 79.5 153.5 78.7 153.9 C 77.4 154.5 75.7 153.9 73.8 152.8 Z  M 83.3 169.5 C 83.3 169.5 83.3 169.5 83.3 169.5 C 81.3 168.1 79.5 167.2 78.1 166.9 C 78.7 164.9 79.3 163.1 80 161.4 C 80.4 161.1 80.7 160.7 81.1 160.4 C 81.7 161.1 82.5 162.2 82.8 163.5 C 83.3 165.5 83.6 168.6 83.3 169.5 Z  M 105.1 171 C 105.1 171 102.8 172.8 95.2 172.8 C 87.5 172.8 85.3 171 85.3 171 C 85.6 167 84.5 162.7 81.5 160 C 84.5 159.4 87.8 160.7 89.4 163.3 C 89.4 161.6 90 159.9 91 158.5 C 92 157.1 93.5 156.1 95.2 155.7 C 96.9 156.1 98.4 157.1 99.4 158.5 C 100.4 159.9 101 161.6 101 163.3 C 102.6 160.7 105.9 159.4 108.9 160 C 105.9 162.7 104.8 167 105.1 171 Z  M 107.1 169.5 C 107.1 169.5 107.1 169.5 107.1 169.5 C 106.7 168.6 107 165.5 107.6 163.5 C 107.9 162.2 108.8 161.1 109.3 160.4 C 109.7 160.7 110 161.1 110.4 161.4 C 111 163.1 111.7 164.9 112.3 166.9 C 111 167.2 109.1 168.1 107.1 169.5 Z  M 111.7 153.9 C 110.8 153.5 109.8 152.3 108.8 150.8 C 108.2 149.8 107.5 148.8 107 147.7 C 107.1 147.8 107.2 147.9 107.3 148.1 C 110.5 151.3 113.7 152.5 116.6 152.8 C 114.7 153.9 113 154.5 111.7 153.9 Z  M 114.3 158 C 116.9 158.2 120.3 156.7 123.2 153.1 C 123.3 152.9 123.5 152.8 123.6 152.5 C 126.8 152.3 137.5 150.5 145.7 151 C 145.7 151 145.7 151.1 145.7 151.1 C 146.1 153.1 145.4 157.6 141.7 161.1 C 138.3 164.3 134.7 167.2 130.8 169.9 C 126.4 167.3 121.9 164.8 118 161.5 C 116.8 160.5 115.5 159.3 114.3 158 Z " fill="rgb(169,174,178)"/></g></g></svg>